<svg version="1.1" viewBox="0.0 0.0 600.0 600.4251968503937" fill="none" stroke="none" stroke-linecap="square" stroke-miterlimit="10" xmlns:xlink="http://www.w3.org/1999/xlink" xmlns="http://www.w3.org/2000/svg"><clipPath id="p.0"><path d="m0 0l600.0 0l0 600.4252l-600.0 0l0 -600.4252z" clip-rule="nonzero"/></clipPath><g clip-path="url(#p.0)"><path fill="#000000" fill-opacity="0.0" d="m0 0l600.0 0l0 600.4252l-600.0 0z" fill-rule="evenodd"/><path fill="#6abcd4" d="m158.43556 158.45839l142.45668 -142.4567l0 284.9134z" fill-rule="evenodd"/><path fill="#4ba4ce" d="m443.34894 158.43881l-142.4567 142.4567l0 -284.9134z" fill-rule="evenodd"/><path fill="#6abcd4" d="m443.34515 443.3238l-142.4567 142.45667l0 -284.91336z" fill-rule="evenodd"/><path fill="#4ba4ce" d="m158.43176 443.34335l142.4567 -142.4567l0 284.9134z" fill-rule="evenodd"/><path fill="#1e2449" d="m158.43935 158.44264l142.45668 142.45671l-284.91336 0z" fill-rule="evenodd"/><path fill="#2f7fbb" d="m158.45601 443.35605l-142.4567 -142.4567l284.91336 0z" fill-rule="evenodd"/><path fill="#1e2449" d="m443.33755 443.34592l-142.4567 -142.4567l284.9134 0z" fill-rule="evenodd"/><path fill="#2f7fbb" d="m443.3209 158.43254l142.4567 142.45668l-284.9134 0z" fill-rule="evenodd"/></g></svg>