<svg version="1.1" width="350px" height="64px" viewBox="0.0 0.0 864.0 176.0" fill="none" stroke="none" stroke-linecap="square" stroke-miterlimit="10" xmlns:xlink="http://www.w3.org/1999/xlink" xmlns="http://www.w3.org/2000/svg"><clipPath id="p.0"><path d="m0 0l864.0 0l0 176.0l-864.0 0l0 -176.0z" clip-rule="nonzero"/></clipPath><g clip-path="url(#p.0)"><path fill="#000000" fill-opacity="0.0" d="m0 0l864.0 0l0 176.0l-864.0 0z" fill-rule="evenodd"/><path fill="#000000" fill-opacity="0.0" d="m160.9461 -0.77165353l703.0551 0l0 177.5433l-703.0551 0z" fill-rule="evenodd"/><path fill="#ffffff" d="m216.28986 137.9329q-12.171875 0 -21.0625 -4.859375q-8.890625 -4.875 -13.765625 -13.890625q-4.859375 -9.03125 -4.859375 -21.1875l0 -50.9375l18.5625 0l0 50.9375q0 6.90625 2.625 12.09375q2.625 5.1875 7.421875 7.9375q4.796875 2.75 11.203125 2.75q6.390625 0 11.125 -2.75q4.75 -2.75 7.359375 -7.9375q2.625 -5.1875 2.625 -12.09375l0 -50.9375l18.4375 0l0 50.9375q0 12.03125 -4.875 21.0625q-4.859375 9.015625 -13.75 13.953125q-8.890625 4.921875 -21.046875 4.921875zm53.36252 -1.28125l0 -89.59375l17.546875 -2.953125l0 31.234375q7.9375 -6.265625 18.6875 -6.265625q9.46875 0 17.140625 4.609375q7.6875 4.59375 12.234375 12.34375q4.546875 7.75 4.546875 17.34375q0 9.59375 -4.609375 17.34375q-4.609375 7.75 -12.421875 12.296875q-7.8125 4.53125 -17.40625 4.53125q-5.0 0 -9.734375 -1.40625q-4.734375 -1.40625 -8.703125 -4.09375l0 4.609375l-17.28125 0zm33.40625 -13.953125q5.515625 0 9.921875 -2.5625q4.421875 -2.5625 6.984375 -6.90625q2.5625 -4.359375 2.5625 -9.859375q0 -5.5 -2.5625 -9.90625q-2.5625 -4.421875 -6.984375 -6.921875q-4.40625 -2.5 -9.921875 -2.5q-4.859375 0 -8.890625 1.609375q-4.03125 1.59375 -6.96875 4.796875l0 25.984375q2.8125 2.9375 6.96875 4.609375q4.15625 1.65625 8.890625 1.65625zm47.361755 13.953125l0 -89.59375l17.546875 -2.953125l0 92.546875l-17.546875 0zm31.232025 0l0 -89.59375l17.546875 -3.84375l0 32.25q7.546875 -6.78125 18.6875 -6.78125q7.796875 0 13.75 3.390625q5.953125 3.390625 9.28125 9.34375q3.328125 5.953125 3.328125 13.890625l0 41.34375l-17.53125 0l0 -38.78125q0 -6.53125 -3.71875 -10.296875q-3.703125 -3.78125 -10.109375 -3.78125q-4.484375 0 -7.9375 1.734375q-3.453125 1.71875 -5.75 4.921875l0 46.203125l-17.546875 0zm101.12338 1.28125q-7.671875 0 -13.625 -3.390625q-5.953125 -3.390625 -9.34375 -9.40625q-3.390625 -6.015625 -3.390625 -13.828125l0 -41.34375l17.53125 0l0 38.78125q0 6.40625 3.765625 10.25q3.78125 3.828125 10.1875 3.828125q4.34375 0 7.859375 -1.71875q3.53125 -1.734375 5.828125 -4.9375l0 -46.203125l17.546844 0l0 66.6875l-17.546844 0l0 -5.375q-7.671875 6.65625 -18.8125 6.65625zm50.044647 -1.28125l0 -89.59375l17.546875 -2.953125l0 31.234375q7.9375 -6.265625 18.6875 -6.265625q9.46875 0 17.140625 4.609375q7.6875 4.59375 12.234375 12.34375q4.546875 7.75 4.546875 17.34375q0 9.59375 -4.609375 17.34375q-4.609375 7.75 -12.421875 12.296875q-7.8125 4.53125 -17.40625 4.53125q-5.0 0 -9.734375 -1.40625q-4.734375 -1.40625 -8.703125 -4.09375l0 4.609375l-17.28125 0zm33.40625 -13.953125q5.515625 0 9.921875 -2.5625q4.421875 -2.5625 6.984375 -6.90625q2.5625 -4.359375 2.5625 -9.859375q0 -5.5 -2.5625 -9.90625q-2.5625 -4.421875 -6.984375 -6.921875q-4.40625 -2.5 -9.921875 -2.5q-4.859375 0 -8.890625 1.609375q-4.03125 1.59375 -6.96875 4.796875l0 25.984375q2.8125 2.9375 6.96875 4.609375q4.15625 1.65625 8.890625 1.65625z" fill-rule="nonzero"/><path fill="#6abcd4" d="m43.48127 55.28489l32.72441 -32.72441l0 65.44882z" fill-rule="evenodd"/><path fill="#4ba4ce" d="m108.93009 55.27651l-32.72441 32.724407l0 -65.448814z" fill-rule="evenodd"/><path fill="#6abcd4" d="m108.92922 120.71491l-32.72441 32.72442l0 -65.44882z" fill-rule="evenodd"/><path fill="#4ba4ce" d="m43.4804 120.7233l32.72441 -32.72441l0 65.44882z" fill-rule="evenodd"/><path fill="#1e2449" d="m43.482143 55.27739l32.724407 32.72441l-65.448814 0z" fill-rule="evenodd"/><path fill="#2f7fbb" d="m43.48881 120.72621l-32.72441 -32.72441l65.448814 0z" fill-rule="evenodd"/><path fill="#1e2449" d="m108.927475 120.723885l-32.72441 -32.72441l65.44882 0z" fill-rule="evenodd"/><path fill="#2f7fbb" d="m108.92081 55.275066l32.72441 32.724407l-65.44882 0z" fill-rule="evenodd"/></g></svg>