<svg version="1.1" viewBox="0.0 0.0 1084.0 176.0" fill="none" stroke="none" stroke-linecap="square" stroke-miterlimit="10" xmlns:xlink="http://www.w3.org/1999/xlink" xmlns="http://www.w3.org/2000/svg"><clipPath id="p.0"><path d="m0 0l1084.0 0l0 176.0l-1084.0 0l0 -176.0z" clip-rule="nonzero"/></clipPath><g clip-path="url(#p.0)"><path fill="#000000" fill-opacity="0.0" d="m0 0l1084.0 0l0 176.0l-1084.0 0z" fill-rule="evenodd"/><path fill="#000000" fill-opacity="0.0" d="m0 0l972.0 0l0 177.5433l-972.0 0z" fill-rule="evenodd"/><path fill="#ffffff" d="m29.984375 131.88l-21.375 0l34.046875 -46.34375l-32.25 -43.25l22.140625 0l21.25 29.4375l21.125 -29.4375l21.375 0l-31.875 43.25l34.5625 46.34375l-22.140625 0l-23.421875 -32.640625l-23.4375 32.640625zm68.878265 -14.203125l10.625 -13.3125q7.796875 6.78125 15.03125 9.921875q7.234375 3.125 15.296875 3.125q8.3125 0 13.296875 -3.0625q5.0 -3.078125 5.0 -8.203125q0 -4.609375 -3.390625 -7.15625q-3.390625 -2.5625 -11.328125 -3.84375l-17.78125 -3.078125q-11.53125 -1.921875 -17.484375 -8.0625q-5.9375 -6.140625 -5.9375 -15.875q0 -12.53125 9.53125 -19.828125q9.53125 -7.296875 25.796875 -7.296875q9.71875 0 19.640625 3.328125q9.921875 3.328125 17.34375 9.203125l-9.984375 13.828125q-7.171875 -5.5 -14.078125 -8.125q-6.90625 -2.625 -14.203125 -2.625q-7.421875 0 -11.90625 2.75q-4.484375 2.75 -4.484375 7.359375q0 4.09375 2.9375 6.40625q2.953125 2.296875 9.859375 3.328125l16.90625 2.8125q13.3125 2.171875 20.03125 8.515625q6.71875 6.328125 6.71875 16.703125q0 13.046875 -10.3125 20.859375q-10.296875 7.8125 -27.453125 7.8125q-10.75 0 -21.1875 -4.09375q-10.421875 -4.09375 -18.484375 -11.390625zm148.47289 5.890625q-6.140625 4.984375 -12.609375 7.296875q-6.46875 2.296875 -14.390625 2.296875q-7.5625 0 -14.15625 -2.6875q-6.59375 -2.6875 -11.390625 -7.296875q-4.796875 -4.609375 -7.546875 -10.9375q-2.75 -6.34375 -2.75 -13.640625q0 -7.171875 2.625 -13.5q2.625 -6.34375 7.21875 -11.015625q4.609375 -4.671875 10.9375 -7.359375q6.34375 -2.6875 13.515625 -2.6875q7.046875 0 13.125 2.75q6.078125 2.75 10.484375 7.5q4.421875 4.734375 6.921875 11.328125q2.5 6.578125 2.5 14.265625l0 4.609375l-49.671875 0q1.796875 6.265625 6.90625 10.109375q5.125 3.84375 12.046875 3.84375q4.34375 0 8.1875 -1.40625q3.84375 -1.40625 6.53125 -3.96875l11.515625 10.5zm-28.921875 -45.0625q-6.015625 0 -10.375 3.65625q-4.34375 3.640625 -6.015625 9.78125l32.640625 0q-1.65625 -5.890625 -6.078125 -9.65625q-4.421875 -3.78125 -10.171875 -3.78125zm44.148636 53.375l0 -66.6875l17.546875 0l0 5.25q3.828125 -3.203125 8.5 -4.859375q4.671875 -1.671875 10.1875 -1.671875q11.515625 0 18.9375 7.421875q7.421875 7.421875 7.421875 19.078125l0 41.46875l-17.53125 0l0 -38.90625q0 -6.28125 -3.78125 -10.109375q-3.765625 -3.84375 -10.046875 -3.84375q-4.34375 0 -7.875 1.734375q-3.515625 1.71875 -5.8125 4.921875l0 46.203125l-17.546875 0zm125.7009 0l0 -5.5q-3.96875 3.203125 -8.828125 4.796875q-4.859375 1.59375 -10.109375 1.59375q-7.046875 0 -13.265625 -2.6875q-6.203125 -2.6875 -10.8125 -7.296875q-4.59375 -4.609375 -7.21875 -10.875q-2.625 -6.265625 -2.625 -13.4375q0 -7.171875 2.6875 -13.4375q2.6875 -6.28125 7.296875 -10.890625q4.609375 -4.609375 10.9375 -7.21875q6.34375 -2.625 13.5 -2.625q4.875 0 9.546875 1.34375q4.671875 1.34375 8.640625 3.890625l0 -27.25l17.53125 -3.84375l0 93.4375l-17.28125 0zm-35.578125 -33.40625q0 8.0625 5.625 13.703125q5.640625 5.625 13.828125 5.625q4.859375 0 8.890625 -1.65625q4.03125 -1.671875 6.984375 -4.75l0 -25.984375q-2.828125 -2.9375 -6.984375 -4.59375q-4.15625 -1.671875 -8.890625 -1.671875q-8.328125 0 -13.890625 5.578125q-5.5625 5.5625 -5.5625 13.75zm126.458496 25.09375q-6.140625 4.984375 -12.609375 7.296875q-6.46875 2.296875 -14.390625 2.296875q-7.5625 0 -14.15625 -2.6875q-6.59375 -2.6875 -11.390625 -7.296875q-4.796875 -4.609375 -7.546875 -10.9375q-2.75 -6.34375 -2.75 -13.640625q0 -7.171875 2.625 -13.5q2.625 -6.34375 7.21875 -11.015625q4.609375 -4.671875 10.9375 -7.359375q6.34375 -2.6875 13.515625 -2.6875q7.046875 0 13.125 2.75q6.078125 2.75 10.484375 7.5q4.421875 4.734375 6.921875 11.328125q2.5 6.578125 2.5 14.265625l0 4.609375l-49.671875 0q1.796875 6.265625 6.90625 10.109375q5.125 3.84375 12.046875 3.84375q4.34375 0 8.1875 -1.40625q3.84375 -1.40625 6.53125 -3.96875l11.515625 10.5zm-28.921875 -45.0625q-6.015625 0 -10.375 3.65625q-4.34375 3.640625 -6.015625 9.78125l32.640625 0q-1.65625 -5.890625 -6.078125 -9.65625q-4.421875 -3.78125 -10.171875 -3.78125zm44.14862 53.375l0 -66.6875l17.546875 0l0 7.296875q3.1875 -4.359375 7.734375 -6.59375q4.546875 -2.234375 10.046875 -2.234375q2.5625 0.125 4.28125 0.453125q1.734375 0.3125 3.015625 1.078125l0 15.359375q-1.921875 -0.890625 -4.21875 -1.34375q-2.296875 -0.453125 -4.734375 -0.453125q-5.125 0 -9.421875 2.5625q-4.28125 2.5625 -6.703125 7.421875l0 43.140625l-17.546875 0z" fill-rule="nonzero"/><path fill="#ffffff" d="m566.69434 116.52063l6.53125 -6.78125q6.90625 7.296875 14.78125 11.078125q7.875 3.765625 16.578125 3.765625q10.5 0 17.28125 -4.984375q6.78125 -5.0 6.78125 -12.671875q0 -6.921875 -4.796875 -10.625q-4.796875 -3.71875 -15.8125 -5.515625l-12.921875 -2.046875q-12.9375 -2.046875 -19.078125 -7.609375q-6.140625 -5.5625 -6.140625 -15.046875q0 -11.125 8.703125 -18.03125q8.703125 -6.921875 22.78125 -6.921875q9.34375 0 18.5625 3.078125q9.21875 3.0625 16.765625 8.828125l-5.625 7.671875q-7.296875 -5.5 -14.859375 -8.3125q-7.546875 -2.8125 -15.21875 -2.8125q-9.609375 0 -15.5625 4.421875q-5.953125 4.40625 -5.953125 11.3125q0 6.28125 4.21875 9.609375q4.234375 3.328125 13.96875 4.859375l12.796875 2.046875q14.59375 2.4375 21.3125 8.328125q6.71875 5.875 6.71875 16.25q0 5.890625 -2.5 10.8125q-2.5 4.921875 -7.046875 8.453125q-4.53125 3.515625 -10.875 5.5q-6.328125 1.984375 -13.890625 1.984375q-10.625 0 -20.421875 -4.28125q-9.78125 -4.296875 -17.078125 -12.359375zm138.75189 8.578125q-5.375 3.96875 -11.203125 5.953125q-5.8125 1.984375 -12.734375 1.984375q-6.90625 0 -12.984375 -2.5625q-6.078125 -2.5625 -10.5 -7.03125q-4.421875 -4.484375 -6.984375 -10.5625q-2.546875 -6.09375 -2.546875 -13.125q0 -6.921875 2.484375 -12.9375q2.5 -6.015625 6.71875 -10.484375q4.234375 -4.484375 10.046875 -7.046875q5.828125 -2.5625 12.359375 -2.5625q6.40625 0 11.96875 2.5625q5.5625 2.5625 9.59375 7.046875q4.046875 4.46875 6.40625 10.484375q2.375 6.015625 2.375 12.9375l0 2.9375l-52.609375 0q1.015625 9.46875 7.796875 15.75q6.796875 6.265625 16.265625 6.265625q4.984375 0 9.71875 -1.53125q4.734375 -1.53125 7.9375 -4.359375l5.890625 6.28125zm-25.59375 -50.046875q-8.328125 0 -14.40625 5.640625q-6.078125 5.625 -7.359375 14.453125l42.875 0q-1.28125 -8.453125 -7.234375 -14.265625q-5.9375 -5.828125 -13.875 -5.828125zm43.77014 56.828125l0 -64.125l9.46875 0l0 9.078125q2.828125 -4.984375 7.421875 -7.734375q4.609375 -2.75 10.5 -2.75q1.796875 0 3.203125 0.1875q1.40625 0.1875 2.8125 0.703125l0 8.703125q-1.65625 -0.515625 -3.328125 -0.828125q-1.65625 -0.328125 -3.328125 -0.328125q-5.890625 0 -10.375 3.40625q-4.46875 3.390625 -6.90625 9.78125l0 43.90625l-9.46875 0zm67.2074 0l-27.78125 -64.125l10.5 0l21.890625 51.84375l21.875 -51.84375l10.125 0l-27.65625 64.125l-8.953125 0zm96.760254 -6.78125q-5.375 3.96875 -11.203125 5.953125q-5.8125 1.984375 -12.734375 1.984375q-6.90625 0 -12.984375 -2.5625q-6.078125 -2.5625 -10.5 -7.03125q-4.421875 -4.484375 -6.984375 -10.5625q-2.546875 -6.09375 -2.546875 -13.125q0 -6.921875 2.484375 -12.9375q2.5 -6.015625 6.71875 -10.484375q4.234375 -4.484375 10.046875 -7.046875q5.828125 -2.5625 12.359375 -2.5625q6.40625 0 11.96875 2.5625q5.5625 2.5625 9.59375 7.046875q4.046875 4.46875 6.40625 10.484375q2.375 6.015625 2.375 12.9375l0 2.9375l-52.609375 0q1.015625 9.46875 7.796875 15.75q6.796875 6.265625 16.265625 6.265625q4.984375 0 9.71875 -1.53125q4.734375 -1.53125 7.9375 -4.359375l5.890625 6.28125zm-25.59375 -50.046875q-8.328125 0 -14.40625 5.640625q-6.078125 5.625 -7.359375 14.453125l42.875 0q-1.28125 -8.453125 -7.234375 -14.265625q-5.9375 -5.828125 -13.875 -5.828125zm43.77014 56.828125l0 -64.125l9.46875 0l0 9.078125q2.828125 -4.984375 7.421875 -7.734375q4.609375 -2.75 10.5 -2.75q1.796875 0 3.203125 0.1875q1.40625 0.1875 2.8125 0.703125l0 8.703125q-1.65625 -0.515625 -3.328125 -0.828125q-1.65625 -0.328125 -3.328125 -0.328125q-5.890625 0 -10.375 3.40625q-4.46875 3.390625 -6.90625 9.78125l0 43.90625l-9.46875 0z" fill-rule="nonzero"/><path fill="#6abcd4" d="m992.725 66.85148l20.724426 -20.724415l0 41.44882z" fill-rule="evenodd"/><path fill="#4ba4ce" d="m1034.1738 66.839195l-20.724426 20.724411l0 -41.448822z" fill-rule="evenodd"/><path fill="#6abcd4" d="m1034.1732 108.274445l-20.724365 20.724411l0 -41.448822z" fill-rule="evenodd"/><path fill="#4ba4ce" d="m992.7244 108.28673l20.724426 -20.724411l0 41.448822z" fill-rule="evenodd"/><path fill="#1e2449" d="m992.7255 66.83975l20.724426 20.724411l-41.448853 0z" fill-rule="evenodd"/><path fill="#2f7fbb" d="m992.73914 108.288574l-20.724365 -20.724411l41.44879 0z" fill-rule="evenodd"/><path fill="#1e2449" d="m1034.1721 108.2871l-20.724365 -20.724411l41.44873 0z" fill-rule="evenodd"/><path fill="#2f7fbb" d="m1034.1584 66.83828l20.724487 20.724411l-41.448853 0z" fill-rule="evenodd"/></g></svg>