<svg version="1.1" viewBox="0.0 0.0 600.0 600.4251968503937" fill="none" stroke="none" stroke-linecap="square" stroke-miterlimit="10" xmlns:xlink="http://www.w3.org/1999/xlink" xmlns="http://www.w3.org/2000/svg"><clipPath id="p.0"><path d="m0 0l600.0 0l0 600.4252l-600.0 0l0 -600.4252z" clip-rule="nonzero"/></clipPath><g clip-path="url(#p.0)"><path fill="#000000" fill-opacity="0.0" d="m0 0l600.0 0l0 600.4252l-600.0 0z" fill-rule="evenodd"/><path fill="#000000" d="m300.00363 300.2264l255.8082 147.94614l-255.8082 147.9461z" fill-rule="evenodd"/><path stroke="#ffffff" stroke-width="1.0" stroke-linejoin="round" stroke-linecap="butt" d="m300.00363 300.2264l255.8082 147.94614l-255.8082 147.9461z" fill-rule="evenodd"/><path fill="#000000" d="m556.54706 448.17908l-255.8082 -147.9461l255.8082 -147.94612z" fill-rule="evenodd"/><path stroke="#ffffff" stroke-width="1.0" stroke-linejoin="round" stroke-linecap="butt" d="m556.54706 448.17908l-255.8082 -147.9461l255.8082 -147.94612z" fill-rule="evenodd"/><path fill="#000000" d="m299.2623 596.11865l-255.80823 -147.94614l255.80823 -147.9461z" fill-rule="evenodd"/><path stroke="#ffffff" stroke-width="1.0" stroke-linejoin="round" stroke-linecap="butt" d="m299.2623 596.11865l-255.80823 -147.94614l255.80823 -147.9461z" fill-rule="evenodd"/><path fill="#000000" d="m300.00598 4.304776l255.80823 147.9461l-255.80823 147.9461z" fill-rule="evenodd"/><path stroke="#ffffff" stroke-width="1.0" stroke-linejoin="round" stroke-linecap="butt" d="m300.00598 4.304776l255.80823 147.9461l-255.80823 147.9461z" fill-rule="evenodd"/><path fill="#000000" d="m299.2628 300.197l-255.80823 -147.9461l255.80823 -147.9461z" fill-rule="evenodd"/><path stroke="#ffffff" stroke-width="1.0" stroke-linejoin="round" stroke-linecap="butt" d="m299.2628 300.197l-255.80823 -147.9461l255.80823 -147.9461z" fill-rule="evenodd"/><path fill="#000000" d="m43.45475 152.32758l255.80823 147.9461l-255.80823 147.94614z" fill-rule="evenodd"/><path stroke="#ffffff" stroke-width="1.0" stroke-linejoin="round" stroke-linecap="butt" d="m43.45475 152.32758l255.80823 147.9461l-255.80823 147.94614z" fill-rule="evenodd"/><defs><linearGradient id="p.1" gradientUnits="userSpaceOnUse" gradientTransform="matrix(0.0 14.66801039803436 -14.66801039803436 0.0 0.0 0.0)" spreadMethod="pad" x1="21.033103410459987" y1="-36.168622817134015" x2="21.03305028809002" y2="-21.50061241919585"><stop offset="0.0" stop-color="#1957c6"/><stop offset="1.0" stop-color="#2e86ce"/></linearGradient></defs><path fill="url(#p.1)" d="m315.37122 308.51376l215.1496 124.44095l-215.1496 124.44092z" fill-rule="evenodd"/><path stroke="#2e86ce" stroke-width="1.0" stroke-linejoin="round" stroke-linecap="butt" d="m315.37122 308.51376l215.1496 124.44095l-215.1496 124.44092z" fill-rule="evenodd"/><defs><linearGradient id="p.2" gradientUnits="userSpaceOnUse" gradientTransform="matrix(0.0 -14.668009699055789 14.668009699055789 0.0 0.0 0.0)" spreadMethod="pad" x1="-29.515760343229825" y1="21.49925043552848" x2="-29.515813465602324" y2="36.167260134488075"><stop offset="0.0" stop-color="#1957c6"/><stop offset="1.0" stop-color="#2e86ce"/></linearGradient></defs><path fill="url(#p.2)" d="m530.5017 432.93744l-215.1496 -124.44095l215.1496 -124.44095z" fill-rule="evenodd"/><path stroke="#2e86ce" stroke-width="1.0" stroke-linejoin="round" stroke-linecap="butt" d="m530.5017 432.93744l-215.1496 -124.44095l215.1496 -124.44095z" fill-rule="evenodd"/><defs><linearGradient id="p.3" gradientUnits="userSpaceOnUse" gradientTransform="matrix(0.0 -14.668009873800434 14.668009873800434 0.0 0.0 0.0)" spreadMethod="pad" x1="-37.95242862246541" y1="4.7667567514848574" x2="-37.95248174483728" y2="19.4347666251891"><stop offset="0.0" stop-color="#53914b"/><stop offset="1.0" stop-color="#6eb934"/></linearGradient></defs><path fill="url(#p.3)" d="m285.06934 556.6866l-215.1496 -124.44095l215.1496 -124.44095z" fill-rule="evenodd"/><path stroke="#6eb934" stroke-width="1.0" stroke-linejoin="round" stroke-linecap="butt" d="m285.06934 556.6866l-215.1496 -124.44095l215.1496 -124.44095z" fill-rule="evenodd"/><defs><linearGradient id="p.4" gradientUnits="userSpaceOnUse" gradientTransform="matrix(0.0 14.668009873800434 -14.668009873800434 0.0 0.0 0.0)" spreadMethod="pad" x1="12.503218350303563" y1="-19.43495115553348" x2="12.503165227931696" y2="-4.766941281829238"><stop offset="0.0" stop-color="#53914b"/><stop offset="1.0" stop-color="#6eb934"/></linearGradient></defs><path fill="url(#p.4)" d="m69.92155 183.39734l215.1496 124.44095l-215.1496 124.44095z" fill-rule="evenodd"/><path stroke="#6eb934" stroke-width="1.0" stroke-linejoin="round" stroke-linecap="butt" d="m69.92155 183.39734l215.1496 124.44095l-215.1496 124.44095z" fill-rule="evenodd"/><defs><radialGradient id="p.5" gradientUnits="userSpaceOnUse" gradientTransform="matrix(0.0 12.82547515338535 -12.82547515338535 0.0 0.0 0.0)" spreadMethod="pad" cx="11.74026961338173" cy="-31.72662031706654" fx="11.74026961338173" fy="-31.72662031706654" r="12.825474739074707"><stop offset="0.0" stop-color="#ef9a19"/><stop offset="1.0" stop-color="#facd11"/></radialGradient></defs><path fill="url(#p.5)" d="m299.33417 26.13359l215.1496 124.44095l-215.1496 124.44093z" fill-rule="evenodd"/><path stroke="#facd11" stroke-width="1.0" stroke-linejoin="round" stroke-linecap="butt" d="m299.33417 26.13359l215.1496 124.44095l-215.1496 124.44093z" fill-rule="evenodd"/><defs><radialGradient id="p.6" gradientUnits="userSpaceOnUse" gradientTransform="matrix(0.0 -12.82547515338535 12.82547515338535 0.0 0.0 0.0)" spreadMethod="pad" cx="-11.738802020801076" cy="14.951201124082226" fx="-11.738802020801076" fy="14.951201124082226" r="12.825474739074707"><stop offset="0.0" stop-color="#ef9a19"/><stop offset="1.0" stop-color="#facd11"/></radialGradient></defs><path fill="url(#p.6)" d="m299.33105 274.99667l-215.1496 -124.44096l215.1496 -124.44094z" fill-rule="evenodd"/><path stroke="#facd11" stroke-width="1.0" stroke-linejoin="round" stroke-linecap="butt" d="m299.33105 274.99667l-215.1496 -124.44096l215.1496 -124.44094z" fill-rule="evenodd"/></g></svg>