<svg version="1.1" width="350px" height="64px" viewBox="0.0 0.0 1248.0 176.0" fill="none" stroke="none" stroke-linecap="square" stroke-miterlimit="10" xmlns:xlink="http://www.w3.org/1999/xlink" xmlns="http://www.w3.org/2000/svg"><clipPath id="p.0"><path d="m0 0l1248.0 0l0 176.0l-1248.0 0l0 -176.0z" clip-rule="nonzero"/></clipPath><g clip-path="url(#p.0)"><path fill="#000000" fill-opacity="0.0" d="m0 0l1248.0 0l0 176.0l-1248.0 0z" fill-rule="evenodd"/><path fill="#000000" fill-opacity="0.0" d="m167.07733 -0.77165353l703.0551 0l0 177.5433l-703.0551 0z" fill-rule="evenodd"/><path fill="#ffffff" d="m176.46796 122.44853l10.625 -13.3125q7.796875 6.78125 15.03125 9.921875q7.234375 3.125 15.296875 3.125q8.3125 0 13.296875 -3.0625q5.0 -3.078125 5.0 -8.203125q0 -4.609375 -3.390625 -7.15625q-3.390625 -2.5625 -11.328125 -3.84375l-17.78125 -3.078125q-11.53125 -1.921875 -17.484375 -8.0625q-5.9375 -6.140625 -5.9375 -15.875q0 -12.53125 9.53125 -19.828125q9.53125 -7.296875 25.796875 -7.296875q9.71875 0 19.640625 3.328125q9.921875 3.328125 17.34375 9.203125l-9.984375 13.828125q-7.171875 -5.5 -14.078125 -8.125q-6.90625 -2.625 -14.203125 -2.625q-7.421875 0 -11.90625 2.75q-4.484375 2.75 -4.484375 7.359375q0 4.09375 2.9375 6.40625q2.953125 2.296875 9.859375 3.328125l16.90625 2.8125q13.3125 2.171875 20.03125 8.515625q6.71875 6.328125 6.71875 16.703125q0 13.046875 -10.3125 20.859375q-10.296875 7.8125 -27.453125 7.8125q-10.75 0 -21.1875 -4.09375q-10.421875 -4.09375 -18.484375 -11.390625zm148.4729 5.890625q-6.140625 4.984375 -12.609375 7.296875q-6.46875 2.296875 -14.390625 2.296875q-7.5625 0 -14.15625 -2.6875q-6.59375 -2.6875 -11.390625 -7.296875q-4.796875 -4.609375 -7.546875 -10.9375q-2.75 -6.34375 -2.75 -13.640625q0 -7.171875 2.625 -13.5q2.625 -6.34375 7.21875 -11.015625q4.609375 -4.671875 10.9375 -7.359375q6.34375 -2.6875 13.515625 -2.6875q7.046875 0 13.125 2.75q6.078125 2.75 10.484375 7.5q4.421875 4.734375 6.921875 11.328125q2.5 6.578125 2.5 14.265625l0 4.609375l-49.671875 0q1.796875 6.265625 6.90625 10.109375q5.125 3.84375 12.046875 3.84375q4.34375 0 8.1875 -1.40625q3.84375 -1.40625 6.53125 -3.96875l11.515625 10.5zm-28.921875 -45.0625q-6.015625 0 -10.375 3.65625q-4.34375 3.640625 -6.015625 9.78125l32.640625 0q-1.65625 -5.890625 -6.078125 -9.65625q-4.421875 -3.78125 -10.171875 -3.78125zm65.01764 54.53125q-10.75 0 -17.53125 -5.6875q-6.78125 -5.703125 -6.78125 -14.796875q0 -9.46875 7.28125 -14.84375q7.296875 -5.375 20.109375 -5.375q4.09375 0 8.1875 0.640625q4.09375 0.640625 8.0625 1.921875l0 -4.75q0 -5.75 -3.59375 -8.6875q-3.578125 -2.953125 -10.484375 -2.953125q-4.21875 0 -9.15625 1.34375q-4.921875 1.34375 -11.203125 4.15625l-6.390625 -12.921875q7.8125 -3.59375 15.171875 -5.375q7.359375 -1.796875 14.515625 -1.796875q13.4375 0 20.921875 6.46875q7.5 6.453125 7.5 18.234375l0 43.265625l-17.28125 0l0 -4.609375q-4.21875 2.953125 -8.890625 4.359375q-4.671875 1.40625 -10.4375 1.40625zm-7.546875 -20.875q0 3.84375 3.328125 6.09375q3.328125 2.234375 8.828125 2.234375q4.34375 0 7.984375 -1.078125q3.65625 -1.09375 6.734375 -3.140625l0 -9.984375q-3.203125 -1.28125 -6.71875 -1.859375q-3.515625 -0.578125 -7.359375 -0.578125q-6.015625 0 -9.40625 2.25q-3.390625 2.234375 -3.390625 6.0625zm57.461884 19.71875l0 -66.6875l17.546844 0l0 7.296875q3.1875 -4.359375 7.734375 -6.59375q4.546875 -2.234375 10.046875 -2.234375q2.5625 0.125 4.28125 0.453125q1.734375 0.3125 3.015625 1.078125l0 15.359375q-1.921875 -0.890625 -4.21875 -1.34375q-2.296875 -0.453125 -4.734375 -0.453125q-5.125 0 -9.421875 2.5625q-4.28125 2.5625 -6.703125 7.421875l0 43.140625l-17.546844 0zm81.53662 -14.078125q4.484375 0 8.390625 -1.78125q3.90625 -1.796875 7.484375 -5.640625l10.5000305 10.875q-5.125 5.640625 -12.2969055 8.78125q-7.15625 3.125 -14.84375 3.125q-7.296875 0 -13.765625 -2.6875q-6.453125 -2.6875 -11.125 -7.296875q-4.671875 -4.609375 -7.359375 -10.9375q-2.6875 -6.34375 -2.6875 -13.640625q0 -7.296875 2.6875 -13.625q2.6875 -6.34375 7.359375 -11.015625q4.671875 -4.671875 11.125 -7.359375q6.46875 -2.6875 13.765625 -2.6875q7.9375 0 15.234375 3.140625q7.2969055 3.125 12.4219055 8.765625l-10.7500305 11.390625q-3.59375 -3.96875 -7.6875 -6.015625q-4.09375 -2.046875 -8.828125 -2.046875q-7.5625 0 -12.75 5.640625q-5.171875 5.625 -5.171875 13.8125q0 8.1875 5.3125 13.703125q5.3125 5.5 12.984375 5.5zm35.455414 14.078125l0 -89.59375l17.546875 -3.84375l0 32.0q3.828125 -3.203125 8.5 -4.859375q4.671875 -1.671875 10.1875 -1.671875q11.515625 0 18.9375 7.421875q7.421875 7.421875 7.421875 19.078125l0 41.46875l-17.53125 0l0 -38.90625q0 -6.28125 -3.78125 -10.109375q-3.765625 -3.84375 -10.046875 -3.84375q-4.34375 0 -7.875 1.734375q-3.515625 1.71875 -5.8125 4.921875l0 46.203125l-17.546875 0zm75.90399 26.75l0 -93.4375l17.28125 0l0 5.5q3.96875 -3.203125 8.828125 -4.796875q4.875 -1.59375 10.125 -1.59375q7.03125 0 13.234375 2.6875q6.21875 2.6875 10.828125 7.296875q4.609375 4.609375 7.234375 10.875q2.625 6.265625 2.625 13.4375q0 7.171875 -2.6875 13.453125q-2.6875 6.265625 -7.296875 10.875q-4.609375 4.59375 -10.953125 7.21875q-6.328125 2.625 -13.5 2.625q-4.859375 0 -9.53125 -1.34375q-4.671875 -1.34375 -8.640625 -3.90625l0 31.109375l-17.546875 0zm33.40625 -79.359375q-4.734375 0 -8.828125 1.609375q-4.09375 1.59375 -7.03125 4.65625l0 26.25q2.8125 2.8125 6.96875 4.484375q4.15625 1.65625 8.890625 1.65625q8.203125 0 13.828125 -5.5625q5.640625 -5.578125 5.640625 -13.765625q0 -8.1875 -5.703125 -13.75q-5.6875 -5.578125 -13.765625 -5.578125zm107.78302 44.296875q-6.140625 4.984375 -12.609375 7.296875q-6.46875 2.296875 -14.390625 2.296875q-7.5625 0 -14.15625 -2.6875q-6.59375 -2.6875 -11.390625 -7.296875q-4.796875 -4.609375 -7.546875 -10.9375q-2.75 -6.34375 -2.75 -13.640625q0 -7.171875 2.625 -13.5q2.625 -6.34375 7.21875 -11.015625q4.609375 -4.671875 10.9375 -7.359375q6.34375 -2.6875 13.515625 -2.6875q7.046875 0 13.125 2.75q6.078125 2.75 10.484375 7.5q4.421875 4.734375 6.921875 11.328125q2.5 6.578125 2.5 14.265625l0 4.609375l-49.671875 0q1.796875 6.265625 6.90625 10.109375q5.125 3.84375 12.046875 3.84375q4.34375 0 8.1875 -1.40625q3.84375 -1.40625 6.53125 -3.96875l11.515625 10.5zm-28.921875 -45.0625q-6.015625 0 -10.375 3.65625q-4.34375 3.640625 -6.015625 9.78125l32.640625 0q-1.65625 -5.890625 -6.078125 -9.65625q-4.421875 -3.78125 -10.171875 -3.78125z" fill-rule="nonzero"/><path fill="#000000" d="m73.23159 88.00207l52.877754 30.581726l-52.877754 30.581734z" fill-rule="evenodd"/><path stroke="#ffffff" stroke-width="1.0" stroke-linejoin="round" stroke-linecap="butt" d="m73.23159 88.00207l52.877754 30.581726l-52.877754 30.581734z" fill-rule="evenodd"/><path fill="#000000" d="m126.26132 118.58515l-52.877754 -30.581734l52.877754 -30.581726z" fill-rule="evenodd"/><path stroke="#ffffff" stroke-width="1.0" stroke-linejoin="round" stroke-linecap="butt" d="m126.26132 118.58515l-52.877754 -30.581734l52.877754 -30.581726z" fill-rule="evenodd"/><path fill="#000000" d="m73.07835 149.16553l-52.877747 -30.581734l52.877747 -30.581726z" fill-rule="evenodd"/><path stroke="#ffffff" stroke-width="1.0" stroke-linejoin="round" stroke-linecap="butt" d="m73.07835 149.16553l-52.877747 -30.581734l52.877747 -30.581726z" fill-rule="evenodd"/><path fill="#000000" d="m73.23208 26.832533l52.877747 30.581728l-52.877747 30.581726z" fill-rule="evenodd"/><path stroke="#ffffff" stroke-width="1.0" stroke-linejoin="round" stroke-linecap="butt" d="m73.23208 26.832533l52.877747 30.581728l-52.877747 30.581726z" fill-rule="evenodd"/><path fill="#000000" d="m73.07845 87.99599l-52.877747 -30.581726l52.877747 -30.58173z" fill-rule="evenodd"/><path stroke="#ffffff" stroke-width="1.0" stroke-linejoin="round" stroke-linecap="butt" d="m73.07845 87.99599l-52.877747 -30.581726l52.877747 -30.58173z" fill-rule="evenodd"/><path fill="#000000" d="m20.200743 57.43011l52.877747 30.58173l-52.877747 30.581726z" fill-rule="evenodd"/><path stroke="#ffffff" stroke-width="1.0" stroke-linejoin="round" stroke-linecap="butt" d="m20.200743 57.43011l52.877747 30.58173l-52.877747 30.581726z" fill-rule="evenodd"/><defs><linearGradient id="p.1" gradientUnits="userSpaceOnUse" gradientTransform="matrix(0.0 6.668779525978962 -6.668779525978962 0.0 0.0 0.0)" spreadMethod="pad" x1="13.45630063920722" y1="-18.131971835074207" x2="13.456276040703983" y2="-11.463192309140613"><stop offset="0.0" stop-color="#1957c6"/><stop offset="1.0" stop-color="#2e86ce"/></linearGradient></defs><path fill="url(#p.1)" d="m76.4455 89.7371l44.472443 25.732277l-44.472443 25.732285z" fill-rule="evenodd"/><path stroke="#2e86ce" stroke-width="1.0" stroke-linejoin="round" stroke-linecap="butt" d="m76.4455 89.7371l44.472443 25.732277l-44.472443 25.732285z" fill-rule="evenodd"/><defs><linearGradient id="p.2" gradientUnits="userSpaceOnUse" gradientTransform="matrix(0.0 -6.6687799103305645 6.6687799103305645 0.0 0.0 0.0)" spreadMethod="pad" x1="-17.314161311561858" y1="11.460328229113294" x2="-17.314185910063674" y2="18.129108139398493"><stop offset="0.0" stop-color="#1957c6"/><stop offset="1.0" stop-color="#2e86ce"/></linearGradient></defs><path fill="url(#p.2)" d="m120.89903 115.46433l-44.472443 -25.732285l44.472443 -25.732285z" fill-rule="evenodd"/><path stroke="#2e86ce" stroke-width="1.0" stroke-linejoin="round" stroke-linecap="butt" d="m120.89903 115.46433l-44.472443 -25.732285l44.472443 -25.732285z" fill-rule="evenodd"/><defs><linearGradient id="p.3" gradientUnits="userSpaceOnUse" gradientTransform="matrix(0.0 -6.668779718154766 6.668779718154766 0.0 0.0 0.0)" spreadMethod="pad" x1="-21.151110030215058" y1="3.850376311625589" x2="-21.151134628717585" y2="10.519156029734988"><stop offset="0.0" stop-color="#53914b"/><stop offset="1.0" stop-color="#6eb934"/></linearGradient></defs><path fill="url(#p.3)" d="m70.14994 141.0521l-44.472443 -25.732285l44.472443 -25.732285z" fill-rule="evenodd"/><path stroke="#6eb934" stroke-width="1.0" stroke-linejoin="round" stroke-linecap="butt" d="m70.14994 141.0521l-44.472443 -25.732285l44.472443 -25.732285z" fill-rule="evenodd"/><defs><linearGradient id="p.4" gradientUnits="userSpaceOnUse" gradientTransform="matrix(0.0 6.6687799103305645 -6.6687799103305645 0.0 0.0 0.0)" spreadMethod="pad" x1="9.576957005342962" y1="-10.52148335983656" x2="9.576932406841145" y2="-3.8527034495513637"><stop offset="0.0" stop-color="#53914b"/><stop offset="1.0" stop-color="#6eb934"/></linearGradient></defs><path fill="url(#p.4)" d="m25.69283 63.866615l44.47244 25.732285l-44.47244 25.732285z" fill-rule="evenodd"/><path stroke="#6eb934" stroke-width="1.0" stroke-linejoin="round" stroke-linecap="butt" d="m25.69283 63.866615l44.47244 25.732285l-44.47244 25.732285z" fill-rule="evenodd"/><defs><radialGradient id="p.5" gradientUnits="userSpaceOnUse" gradientTransform="matrix(0.0 5.831708358922811 -5.831708358922811 0.0 0.0 0.0)" spreadMethod="pad" cx="9.78808960879603" cy="-16.352957149678584" fx="9.78808960879603" fy="-16.352957149678584" r="5.8317084312438965"><stop offset="0.0" stop-color="#ef9a19"/><stop offset="1.0" stop-color="#facd11"/></radialGradient></defs><path fill="url(#p.5)" d="m73.129456 31.349l44.472443 25.732283l-44.472443 25.732285z" fill-rule="evenodd"/><path stroke="#facd11" stroke-width="1.0" stroke-linejoin="round" stroke-linecap="butt" d="m73.129456 31.349l44.472443 25.732283l-44.472443 25.732285z" fill-rule="evenodd"/><defs><radialGradient id="p.6" gradientUnits="userSpaceOnUse" gradientTransform="matrix(0.0 -5.831708358922811 5.831708358922811 0.0 0.0 0.0)" spreadMethod="pad" cx="-9.78691569348045" cy="8.721745046284965" fx="-9.78691569348045" fy="8.721745046284965" r="5.8317084312438965"><stop offset="0.0" stop-color="#ef9a19"/><stop offset="1.0" stop-color="#facd11"/></radialGradient></defs><path fill="url(#p.6)" d="m73.09889 82.806725l-44.47244 -25.732288l44.47244 -25.73228z" fill-rule="evenodd"/><path stroke="#facd11" stroke-width="1.0" stroke-linejoin="round" stroke-linecap="butt" d="m73.09889 82.806725l-44.47244 -25.732288l44.47244 -25.73228z" fill-rule="evenodd"/></g></svg>